<?xml version="1.0" encoding="UTF-8"?> <svg xmlns="http://www.w3.org/2000/svg" width="332" height="332" viewBox="0 0 332 332" fill="none"> <mask id="mask0_604_8149" style="mask-type:luminance" maskUnits="userSpaceOnUse" x="0" y="0" width="332" height="332"> <path d="M332 0H0V332H332V0Z" fill="white"></path> </mask> <g mask="url(#mask0_604_8149)"> <path d="M166.003 0L168.425 152.268L222.779 10.011L172.975 153.924L272.707 38.8367L176.686 157.037L309.764 83L179.106 161.231L329.482 137.174L179.947 166L329.482 194.826L179.106 170.769L309.764 249L176.686 174.962L272.707 293.163L172.975 178.076L222.779 321.989L168.425 179.732L166.003 332L163.582 179.732L109.228 321.989L159.031 178.076L59.3007 293.163L155.322 174.962L22.2433 249L152.9 170.769L2.52539 194.826L152.059 166L2.52539 137.174L152.9 161.231L22.2433 83L155.322 157.037L59.3007 38.8367L159.031 153.924L109.228 10.011L163.582 152.268L166.003 0Z" fill="#9015D5"></path> </g> </svg> 