<?xml version="1.0" encoding="UTF-8"?> <svg xmlns="http://www.w3.org/2000/svg" width="100" height="100" viewBox="0 0 100 100" fill="none"> <mask id="mask0_709_98" style="mask-type:luminance" maskUnits="userSpaceOnUse" x="0" y="0" width="100" height="100"> <path d="M100 0H0V100H100V0Z" fill="white"></path> </mask> <g mask="url(#mask0_709_98)"> <path d="M48.9059 0.92319C49.1179 -0.307736 50.882 -0.307727 51.094 0.9232L53.4315 14.4903C53.618 15.5719 55.0895 15.7582 55.5385 14.7569L61.1695 2.19851C61.6805 1.05909 63.389 1.49863 63.289 2.74373L62.1855 16.4669C62.0975 17.5611 63.4765 18.1081 64.16 17.2502L72.7315 6.48945C73.509 5.51315 75.055 6.36465 74.649 7.54565L70.174 20.5628C69.817 21.6006 71.017 22.4741 71.892 21.8134L82.865 13.5265C83.8605 12.7747 85.1465 13.9846 84.46 15.0273L76.8945 26.5204C76.2915 27.4367 77.237 28.5817 78.2485 28.1598L90.9335 22.8675C92.0845 22.3873 93.03 23.8796 92.106 24.7186L81.9255 33.9654C81.114 34.7027 81.7455 36.0473 82.83 35.8906L96.43 33.9254C97.664 33.7471 98.2095 35.4281 97.1065 36.0105L84.9505 42.4302C83.9815 42.942 84.2595 44.4017 85.3485 44.5202L99.0095 46.0055C100.249 46.1403 100.359 47.9042 99.147 48.1936L85.7795 51.3825C84.7135 51.637 84.6205 53.12 85.646 53.506L98.509 58.3485C99.676 58.788 99.3455 60.524 98.099 60.5025L84.36 60.2605C83.2645 60.241 82.8065 61.6545 83.704 62.284L94.961 70.1795C95.982 70.896 95.231 72.495 94.029 72.163L80.782 68.5055C79.7255 68.214 78.931 69.4685 79.644 70.302L88.5875 80.7545C89.399 81.703 88.2745 83.0645 87.1925 82.4435L75.2695 75.6C74.3185 75.0545 73.2375 76.072 73.7215 77.0565L79.7895 89.409C80.34 90.53 78.913 91.5685 78.0195 90.698L68.169 81.0985C67.384 80.333 66.084 81.049 66.3085 82.1235L69.12 95.5995C69.375 96.8225 67.7345 97.473 67.0855 96.407L59.9275 84.6545C59.3565 83.7175 57.92 84.087 57.8705 85.1835L57.2485 98.9375C57.1925 100.185 55.442 100.407 55.078 99.212L51.062 86.0455C50.7415 84.996 49.2584 84.996 48.9382 86.0455L44.9222 99.212C44.5578 100.407 42.8077 100.185 42.7512 98.9375L42.1295 85.1835C42.0799 84.087 40.6433 83.7175 40.0726 84.6545L32.9147 96.407C32.2652 97.473 30.6251 96.8225 30.8802 95.5995L33.6917 82.1235C33.9159 81.049 32.6161 80.333 31.8308 81.0985L21.9807 90.698C21.087 91.5685 19.6599 90.53 20.2105 89.409L26.2787 77.0565C26.7625 76.072 25.6812 75.0545 24.7306 75.6L12.8073 82.4435C11.7255 83.0645 10.6011 81.703 11.4125 80.7545L20.3561 70.302C21.0692 69.4685 20.2744 68.214 19.2182 68.5055L5.9709 72.163C4.76897 72.495 4.01788 70.896 5.0392 70.1795L16.2962 62.284C17.1937 61.6545 16.7353 60.241 15.64 60.2605L1.90097 60.5025C0.654439 60.524 0.32388 58.788 1.49094 58.3485L14.354 53.506C15.3795 53.12 15.2864 51.637 14.2206 51.3825L0.853249 48.1936C-0.359569 47.9042 -0.248794 46.1403 0.990654 46.0055L14.6516 44.5202C15.7407 44.4017 16.0186 42.942 15.0495 42.4302L2.89362 36.0105C1.79072 35.428 2.33585 33.7471 3.56981 33.9254L17.1702 35.8906C18.2545 36.0473 18.8861 34.7027 18.0744 33.9654L7.89385 24.7186C6.9702 23.8796 7.9154 22.3873 9.06635 22.8675L21.7517 28.1598C22.7631 28.5817 23.7085 27.4367 23.1053 26.5204L15.5398 15.0273C14.8533 13.9846 16.1393 12.7747 17.1349 13.5265L28.1081 21.8134C28.983 22.4741 30.1829 21.6006 29.8261 20.5628L25.3509 7.54565C24.9449 6.36465 26.4908 5.51315 27.2685 6.48945L35.84 17.2502C36.5234 18.1081 37.9025 17.561 37.8145 16.4669L36.7109 2.74372C36.6108 1.49862 38.3194 1.05908 38.8303 2.1985L44.4617 14.7569C44.9107 15.7582 46.3822 15.5719 46.5686 14.4903L48.9059 0.92319Z" fill="#9015D5"></path> </g> </svg> 