<?xml version="1.0" encoding="UTF-8"?> <svg xmlns="http://www.w3.org/2000/svg" width="324" height="324" viewBox="0 0 324 324" fill="none"> <mask id="mask0_709_107" style="mask-type:luminance" maskUnits="userSpaceOnUse" x="0" y="0" width="324" height="324"> <path d="M324 1.94633e-07L0 0L-1.94633e-07 324L324 324L324 1.94633e-07Z" fill="white"></path> </mask> <g mask="url(#mask0_709_107)"> <path d="M162.004 9.5838e-08L164.367 148.599L217.411 9.7698L168.808 150.215L266.136 37.9009L172.428 153.253L302.301 81L174.79 157.346L321.543 133.869L175.612 162L321.543 190.131L174.79 166.654L302.301 243L172.428 170.746L266.136 286.098L168.808 173.786L217.411 314.23L164.367 175.401L162.004 324L159.641 175.401L106.596 314.23L155.2 173.786L57.872 286.098L151.579 170.746L21.7076 243L149.216 166.654L2.46484 190.131L148.396 162L2.46484 133.869L149.216 157.346L21.7076 81L151.579 153.253L57.872 37.9009L155.2 150.215L106.596 9.7698L159.641 148.599L162.004 9.5838e-08Z" fill="#6FEA2A"></path> </g> </svg> 