<?xml version="1.0" encoding="UTF-8"?> <svg xmlns="http://www.w3.org/2000/svg" width="876" height="233" viewBox="0 0 876 233" fill="none"> <path d="M1.98242 233V0.319092H106.538V35.3649H53.3985V93.1042H93.8993V128.725H53.3985V198.241H107.112V233H1.98242Z" fill="white"></path> <path d="M152.859 233L110.922 0.319092H154.87L179.86 158.312L203.126 0.319092H249.659L207.147 233H152.859Z" fill="white"></path> <path d="M264.416 233V0.319092H368.971V35.3649H315.832V93.1042H356.332V128.725H315.832V198.241H369.545V233H264.416Z" fill="white"></path> <path d="M384.27 233V0.319092H420.462L468.144 112.351V0.319092H510.655V233H475.899L428.217 112.351V233H384.27Z" fill="white"></path> <path d="M557.631 233V38.5248H522.588V0.319092H644.09V38.5248H609.334V233H557.631Z" fill="white"></path> <path d="M656.248 233V0.319092H707.664V233H656.248Z" fill="white"></path> <path d="M764.761 233L722.824 0.319092H766.772L791.762 158.312L815.028 0.319092H861.561L819.05 233H764.761Z" fill="white"></path> </svg> 