<?xml version="1.0" encoding="UTF-8"?> <svg xmlns="http://www.w3.org/2000/svg" width="343" height="343" viewBox="0 0 343 343" fill="none"> <mask id="mask0_604_8144" style="mask-type:luminance" maskUnits="userSpaceOnUse" x="0" y="0" width="343" height="343"> <path d="M343 0H0V343H343V0Z" fill="white"></path> </mask> <g mask="url(#mask0_604_8144)"> <path d="M171.504 0L174.006 157.313L230.16 10.3427L178.707 159.024L281.742 40.1235L182.54 162.24L320.028 85.75L185.04 166.573L340.399 141.719L185.91 171.5L340.399 201.281L185.04 176.427L320.028 257.25L182.54 180.759L281.742 302.876L178.707 183.977L230.16 332.657L174.006 185.686L171.504 343L169.002 185.686L112.847 332.657L164.301 183.977L61.2658 302.876L160.468 180.759L22.9806 257.25L157.967 176.427L2.60938 201.281L157.098 171.5L2.60938 141.719L157.967 166.573L22.9806 85.75L160.468 162.24L61.2658 40.1235L164.301 159.024L112.847 10.3427L169.002 157.313L171.504 0Z" fill="#9015D5"></path> </g> </svg> 