<?xml version="1.0" encoding="UTF-8"?> <svg xmlns="http://www.w3.org/2000/svg" width="107" height="107" viewBox="0 0 107 107" fill="none"> <mask id="mask0_604_8193" style="mask-type:luminance" maskUnits="userSpaceOnUse" x="0" y="0" width="107" height="107"> <path d="M1 106V1H106V106H1Z" fill="white" stroke="white" stroke-width="2"></path> </mask> <g mask="url(#mask0_604_8193)"> <mask id="path-2-inside-1_604_8193" fill="white"> <path d="M52.3293 0.987813C52.5562 -0.329278 54.4437 -0.329268 54.6706 0.987824L57.1717 15.5046C57.3713 16.6619 58.9458 16.8612 59.4262 15.7899L65.4514 2.3524C65.9981 1.13322 67.8262 1.60353 67.7192 2.93579L66.5385 17.6196C66.4443 18.7903 67.9198 19.3757 68.6512 18.4577L77.8227 6.94371C78.6546 5.89907 80.3088 6.81018 79.8744 8.07385L75.0862 22.0021C74.7042 23.1126 75.9882 24.0472 76.9244 23.3403L88.6655 14.4734C89.7307 13.6689 91.1067 14.9635 90.3722 16.0792L82.2771 28.3768C81.6319 29.3572 82.6436 30.5824 83.7259 30.1309L97.2988 24.4682C98.5304 23.9544 99.5421 25.5512 98.5534 26.4488L87.6603 36.343C86.792 37.1318 87.4677 38.5706 88.6281 38.4029L103.18 36.3001C104.5 36.1093 105.084 37.908 103.904 38.5312L90.897 45.4003C89.8602 45.9479 90.1577 47.5098 91.3229 47.6366L105.94 49.2258C107.266 49.3701 107.385 51.2575 106.087 51.5671L91.784 54.9793C90.6434 55.2516 90.5439 56.8384 91.6412 57.2514L105.405 62.4329C106.653 62.9032 106.3 64.7607 104.966 64.7377L90.2652 64.4787C89.093 64.4579 88.6029 65.9703 89.5633 66.6439L101.608 75.0921C102.701 75.8587 101.897 77.5697 100.611 77.2144L86.4367 73.3009C85.3063 72.989 84.4562 74.3313 85.2191 75.2231L94.7886 86.4073C95.6569 87.4222 94.4537 88.879 93.296 88.2145L80.5384 80.892C79.5208 80.3083 78.3641 81.397 78.882 82.4505L85.3747 95.6676C85.9638 96.8671 84.4369 97.9783 83.4809 97.0469L72.9408 86.7754C72.1009 85.9563 70.7099 86.7224 70.9501 87.8721L73.9584 102.291C74.2312 103.6 72.4759 104.296 71.7815 103.155L64.1224 90.5803C63.5114 89.5777 61.9744 89.9731 61.9214 91.1464L61.2559 105.863C61.196 107.198 59.3229 107.435 58.9334 106.157L54.6363 92.0687C54.2934 90.9457 52.7065 90.9457 52.3639 92.0687L48.0667 106.157C47.6768 107.435 45.8042 107.198 45.7438 105.863L45.0786 91.1464C45.0255 89.9731 43.4883 89.5777 42.8777 90.5803L35.2187 103.155C34.5238 104.296 32.7689 103.6 33.0418 102.291L36.0502 87.8721C36.29 86.7224 34.8993 85.9563 34.059 86.7754L23.5194 97.0469C22.5631 97.9783 21.0361 96.8671 21.6252 95.6676L28.1182 82.4505C28.6359 81.397 27.4789 80.3083 26.4618 80.892L13.7039 88.2145C12.5463 88.879 11.3432 87.4222 12.2114 86.4073L21.7811 75.2231C22.544 74.3313 21.6936 72.989 20.5635 73.3009L6.38886 77.2144C5.1028 77.5697 4.29913 75.8587 5.39194 75.0921L17.4369 66.6439C18.3973 65.9703 17.9068 64.4579 16.7348 64.4787L2.03404 64.7377C0.70025 64.7607 0.346552 62.9032 1.5953 62.4329L15.3588 57.2514C16.4561 56.8384 16.3564 55.2516 15.2161 54.9793L0.912977 51.5671C-0.384739 51.2575 -0.26621 49.3701 1.06 49.2258L15.6772 47.6366C16.8426 47.5098 17.14 45.9479 16.103 45.4003L3.09617 38.5312C1.91607 37.908 2.49936 36.1093 3.8197 36.3001L18.3722 38.4029C19.5324 38.5706 20.2081 37.1318 19.3396 36.343L8.44642 26.4488C7.45811 25.5512 8.46948 23.9544 9.70099 24.4682L23.2743 30.1309C24.3565 30.5824 25.3681 29.3572 24.7227 28.3768L16.6276 16.0792C15.8931 14.9635 17.269 13.6689 18.3343 14.4734L30.0757 23.3403C31.0118 24.0472 32.2957 23.1126 31.914 22.0021L27.1255 8.07385C26.6911 6.81018 28.3451 5.89907 29.1773 6.94371L38.3488 18.4577C39.0801 19.3757 40.5557 18.7903 40.4616 17.6196L39.2807 2.93578C39.1735 1.60352 41.0018 1.13322 41.5485 2.35239L47.5741 15.7899C48.0544 16.8612 49.629 16.6619 49.8284 15.5046L52.3293 0.987813Z"></path> </mask> <path d="M52.3293 0.987813C52.5562 -0.329278 54.4437 -0.329268 54.6706 0.987824L57.1717 15.5046C57.3713 16.6619 58.9458 16.8612 59.4262 15.7899L65.4514 2.3524C65.9981 1.13322 67.8262 1.60353 67.7192 2.93579L66.5385 17.6196C66.4443 18.7903 67.9198 19.3757 68.6512 18.4577L77.8227 6.94371C78.6546 5.89907 80.3088 6.81018 79.8744 8.07385L75.0862 22.0021C74.7042 23.1126 75.9882 24.0472 76.9244 23.3403L88.6655 14.4734C89.7307 13.6689 91.1067 14.9635 90.3722 16.0792L82.2771 28.3768C81.6319 29.3572 82.6436 30.5824 83.7259 30.1309L97.2988 24.4682C98.5304 23.9544 99.5421 25.5512 98.5534 26.4488L87.6603 36.343C86.792 37.1318 87.4677 38.5706 88.6281 38.4029L103.18 36.3001C104.5 36.1093 105.084 37.908 103.904 38.5312L90.897 45.4003C89.8602 45.9479 90.1577 47.5098 91.3229 47.6366L105.94 49.2258C107.266 49.3701 107.385 51.2575 106.087 51.5671L91.784 54.9793C90.6434 55.2516 90.5439 56.8384 91.6412 57.2514L105.405 62.4329C106.653 62.9032 106.3 64.7607 104.966 64.7377L90.2652 64.4787C89.093 64.4579 88.6029 65.9703 89.5633 66.6439L101.608 75.0921C102.701 75.8587 101.897 77.5697 100.611 77.2144L86.4367 73.3009C85.3063 72.989 84.4562 74.3313 85.2191 75.2231L94.7886 86.4073C95.6569 87.4222 94.4537 88.879 93.296 88.2145L80.5384 80.892C79.5208 80.3083 78.3641 81.397 78.882 82.4505L85.3747 95.6676C85.9638 96.8671 84.4369 97.9783 83.4809 97.0469L72.9408 86.7754C72.1009 85.9563 70.7099 86.7224 70.9501 87.8721L73.9584 102.291C74.2312 103.6 72.4759 104.296 71.7815 103.155L64.1224 90.5803C63.5114 89.5777 61.9744 89.9731 61.9214 91.1464L61.2559 105.863C61.196 107.198 59.3229 107.435 58.9334 106.157L54.6363 92.0687C54.2934 90.9457 52.7065 90.9457 52.3639 92.0687L48.0667 106.157C47.6768 107.435 45.8042 107.198 45.7438 105.863L45.0786 91.1464C45.0255 89.9731 43.4883 89.5777 42.8777 90.5803L35.2187 103.155C34.5238 104.296 32.7689 103.6 33.0418 102.291L36.0502 87.8721C36.29 86.7224 34.8993 85.9563 34.059 86.7754L23.5194 97.0469C22.5631 97.9783 21.0361 96.8671 21.6252 95.6676L28.1182 82.4505C28.6359 81.397 27.4789 80.3083 26.4618 80.892L13.7039 88.2145C12.5463 88.879 11.3432 87.4222 12.2114 86.4073L21.7811 75.2231C22.544 74.3313 21.6936 72.989 20.5635 73.3009L6.38886 77.2144C5.1028 77.5697 4.29913 75.8587 5.39194 75.0921L17.4369 66.6439C18.3973 65.9703 17.9068 64.4579 16.7348 64.4787L2.03404 64.7377C0.70025 64.7607 0.346552 62.9032 1.5953 62.4329L15.3588 57.2514C16.4561 56.8384 16.3564 55.2516 15.2161 54.9793L0.912977 51.5671C-0.384739 51.2575 -0.26621 49.3701 1.06 49.2258L15.6772 47.6366C16.8426 47.5098 17.14 45.9479 16.103 45.4003L3.09617 38.5312C1.91607 37.908 2.49936 36.1093 3.8197 36.3001L18.3722 38.4029C19.5324 38.5706 20.2081 37.1318 19.3396 36.343L8.44642 26.4488C7.45811 25.5512 8.46948 23.9544 9.70099 24.4682L23.2743 30.1309C24.3565 30.5824 25.3681 29.3572 24.7227 28.3768L16.6276 16.0792C15.8931 14.9635 17.269 13.6689 18.3343 14.4734L30.0757 23.3403C31.0118 24.0472 32.2957 23.1126 31.914 22.0021L27.1255 8.07385C26.6911 6.81018 28.3451 5.89907 29.1773 6.94371L38.3488 18.4577C39.0801 19.3757 40.5557 18.7903 40.4616 17.6196L39.2807 2.93578C39.1735 1.60352 41.0018 1.13322 41.5485 2.35239L47.5741 15.7899C48.0544 16.8612 49.629 16.6619 49.8284 15.5046L52.3293 0.987813Z" stroke="#9015D5" stroke-width="4" mask="url(#path-2-inside-1_604_8193)"></path> </g> </svg> 