<?xml version="1.0" encoding="UTF-8"?> <svg xmlns="http://www.w3.org/2000/svg" width="206" height="206" viewBox="0 0 206 206" fill="none"> <mask id="mask0_516_192" style="mask-type:luminance" maskUnits="userSpaceOnUse" x="0" y="0" width="206" height="206"> <path d="M206 0H0V206H206V0Z" fill="white"></path> </mask> <g mask="url(#mask0_516_192)"> <path d="M100.746 1.90177C101.183 -0.633936 104.817 -0.633918 105.254 1.90179L110.069 29.8499C110.453 32.0781 113.484 32.4618 114.409 30.3992L126.009 4.52892C127.062 2.18172 130.581 3.08717 130.375 5.65207L128.102 33.9218C127.921 36.1758 130.762 37.3027 132.17 35.5353L149.827 13.3683C151.429 11.3571 154.613 13.1112 153.777 15.544L144.558 42.3593C143.823 44.4971 146.295 46.2965 148.098 44.9355L170.702 27.8646C172.753 26.3158 175.402 28.8082 173.988 30.9562L158.403 54.6319C157.16 56.5195 159.108 58.8783 161.192 58.0091L187.323 47.107C189.694 46.1178 191.642 49.192 189.738 50.9202L168.767 69.9687C167.095 71.4875 168.396 74.2574 170.63 73.9346L198.646 69.8862C201.188 69.5189 202.312 72.9818 200.039 74.1816L174.998 87.4061C173.002 88.4604 173.575 91.4675 175.818 91.7115L203.96 94.7712C206.513 95.0489 206.741 98.6827 204.243 99.2787L176.706 105.848C174.51 106.372 174.318 109.427 176.431 110.222L202.929 120.198C205.333 121.103 204.652 124.679 202.084 124.635L173.782 124.137C171.525 124.096 170.581 127.008 172.43 128.305L195.62 144.57C197.723 146.046 196.176 149.34 193.7 148.656L166.411 141.121C164.235 140.521 162.598 143.105 164.067 144.822L182.49 166.354C184.162 168.308 181.845 171.113 179.617 169.834L155.055 155.736C153.096 154.612 150.869 156.708 151.866 158.736L164.366 184.183C165.5 186.492 162.561 188.631 160.72 186.838L140.428 167.063C138.811 165.486 136.133 166.961 136.596 169.174L142.387 196.935C142.913 199.454 139.533 200.794 138.196 198.598L123.451 174.388C122.274 172.458 119.315 173.219 119.213 175.478L117.932 203.811C117.817 206.381 114.211 206.837 113.461 204.377L105.188 177.254C104.527 175.092 101.472 175.092 100.813 177.254L92.5397 204.377C91.7891 206.837 88.1839 206.381 88.0676 203.811L86.7868 175.478C86.6847 173.219 83.7252 172.458 82.5497 174.388L67.8043 198.598C66.4664 200.794 63.0877 199.454 63.6132 196.935L69.405 169.174C69.8668 166.961 67.1893 165.486 65.5715 167.063L45.2803 186.838C43.4393 188.631 40.4994 186.492 41.6336 184.183L54.1341 158.736C55.1307 156.708 52.9034 154.612 50.9451 155.736L26.3831 169.834C24.1546 171.113 21.8383 168.308 23.5099 166.354L41.9337 144.822C43.4025 143.105 41.7653 140.521 39.5896 141.121L12.3001 148.656C9.82408 149.34 8.27683 146.046 10.3808 144.57L33.5702 128.305C35.419 127.008 34.4748 124.096 32.2184 124.137L3.916 124.635C1.34815 124.679 0.667193 121.103 3.07134 120.198L29.5692 110.222C31.6819 109.427 31.49 106.372 29.2945 105.848L1.75769 99.2787C-0.740713 98.6827 -0.512517 95.0489 2.04075 94.7712L30.1823 91.7115C32.4259 91.4675 32.9984 88.4604 31.002 87.4061L5.96086 74.1816C3.68889 72.9817 4.81186 69.5189 7.35382 69.8862L35.3707 73.9346C37.6044 74.2574 38.9054 71.4875 37.2333 69.9687L16.2613 50.9202C14.3586 49.192 16.3057 46.1178 18.6767 47.107L44.8085 58.0091C46.892 58.8783 48.8395 56.5195 47.597 54.6319L32.012 30.9562C30.5979 28.8082 33.247 26.3158 35.2979 27.8646L57.9027 44.9355C59.705 46.2965 62.1768 44.4971 61.4419 42.3593L52.223 15.544C51.3866 13.1112 54.571 11.3571 56.1731 13.3683L73.8305 35.5353C75.2383 37.3027 78.0791 36.1757 77.898 33.9218L75.6245 5.65205C75.4182 3.08716 78.9381 2.1817 79.9905 4.5289L91.5912 30.3992C92.516 32.4618 95.5474 32.0781 95.9313 29.8499L100.746 1.90177Z" fill="#6FEA2A"></path> </g> </svg> 