<?xml version="1.0" encoding="UTF-8"?> <svg xmlns="http://www.w3.org/2000/svg" width="373" height="489" viewBox="0 0 373 489" fill="none"> <rect width="373" height="489" fill="#6FEA2A"></rect> <path d="M121 332.5L112.5 339.5L36.5 366L12.5 361.5L5 377.5L7.5 404.5L0 424V489H373V445L369.5 401.5L362 372L363 361.5L358 354.5L330 357.5L294 347.5L260.5 339.5C258.667 335.167 254.8 325.1 254 319.5C253.2 313.9 236 301.167 227.5 295.5L181 289L146.5 308L132 326.5L121 332.5Z" fill="#1A1A1B"></path> <path d="M152 334V314C160.667 309.667 179.2 301 184 301H223.5C229.333 305.333 242.1 315.1 246.5 319.5C250.9 323.9 261 356.667 265.5 372.5L258.5 397.5L246.5 384L241 423L232 489H202.92L196.5 455L178 397.5L171.5 405L160.5 384L152 334Z" fill="white"></path> <path d="M194 308L167.5 319.5L160 327L167.5 344.5L177.5 374L217.5 425.5L247 359.5V339.5L230 315.5L194 308Z" fill="#6FEA2A"></path> </svg> 