<?xml version="1.0" encoding="UTF-8"?> <svg xmlns="http://www.w3.org/2000/svg" width="134" height="134" viewBox="0 0 134 134" fill="none"> <mask id="mask0_687_170" style="mask-type:luminance" maskUnits="userSpaceOnUse" x="0" y="0" width="134" height="134"> <path d="M134 0H0V134H134V0Z" fill="white"></path> </mask> <g mask="url(#mask0_687_170)"> <path d="M66.9997 0L67.9772 61.4575L89.915 4.0406L69.8137 62.126L110.067 15.6751L71.3111 63.3824L125.024 33.5L72.288 65.0751L132.982 55.3656L72.6277 67L132.982 78.6346L72.288 68.9249L125.024 100.5L71.3111 70.6173L110.067 118.325L69.8137 71.8743L89.915 129.959L67.9772 72.5422L66.9997 134L66.0224 72.5422L44.0843 129.959L64.1857 71.8743L23.9329 118.325L62.6884 70.6173L8.97602 100.5L61.7111 68.9249L1.01758 78.6346L61.3717 67L1.01758 55.3656L61.7111 65.0751L8.97602 33.5L62.6884 63.3824L23.9329 15.6751L64.1857 62.126L44.0843 4.0406L66.0224 61.4575L66.9997 0Z" fill="#9015D5"></path> </g> </svg> 