<?xml version="1.0" encoding="UTF-8"?> <svg xmlns="http://www.w3.org/2000/svg" width="373" height="489" viewBox="0 0 373 489" fill="none"> <rect width="373" height="489" fill="#6FEA2A"></rect> <path d="M45 371.401H313V489H45V371.401Z" fill="white"></path> <path d="M55.5293 340.94L0 367.282V489H208.5L188.463 458.57C179.302 443.734 160.53 413.789 158.735 412.699C156.94 411.609 131.438 376.517 118.911 359.107L102.084 326.407L105.45 308.24L142.469 301.882L199.12 313.69L231.092 342.757L223.239 384.995C225.296 395.744 229.409 417.604 229.409 419.058C229.409 420.511 241.749 458.722 247.919 477.646L248.101 489H365.147V470.242V441.288L354.49 422.237V393.624L292.791 350.478C289.613 351.538 282.47 353.657 279.329 353.657C276.188 353.657 251.097 343.363 238.944 338.215L192.95 299.611L105.45 295.523L97.0361 299.611L78.5263 321.865L55.5293 340.94Z" fill="#1A1A1B"></path> <path fill-rule="evenodd" clip-rule="evenodd" d="M103.765 310.057L100.961 329.586L136.859 399.074L144.711 391.353L196.875 372.732L229.968 393.17L234.456 344.12L200.241 313.69L143.029 301.882L103.765 308.24V310.057ZM107.131 310.511L111.618 324.136L130.128 340.032L178.365 362.287L195.753 369.553L208.654 356.382L210.898 336.399L195.753 315.961L144.711 305.061L107.131 310.511Z" fill="white"></path> </svg> 