<?xml version="1.0" encoding="UTF-8"?> <svg xmlns="http://www.w3.org/2000/svg" width="197" height="197" viewBox="0 0 197 197" fill="none"> <mask id="mask0_687_180" style="mask-type:luminance" maskUnits="userSpaceOnUse" x="0" y="0" width="197" height="197"> <path d="M197 0H0V197H197V0Z" fill="white"></path> </mask> <g mask="url(#mask0_687_180)"> <path d="M98.4996 0L99.9368 90.3517L132.189 5.94028L102.637 91.3345L161.814 23.0447L104.838 93.1816L183.804 49.25L106.274 95.6701L195.503 81.3957L106.774 98.5L195.503 115.605L106.274 101.33L183.804 147.75L104.838 103.818L161.814 173.955L102.637 105.666L132.189 191.059L99.9368 106.648L98.4996 197L97.0629 106.648L64.8107 191.059L94.3626 105.666L35.185 173.955L92.1614 103.818L13.1962 147.75L90.7246 101.33L1.49609 115.605L90.2256 98.5L1.49609 81.3957L90.7246 95.6701L13.1962 49.25L92.1614 93.1816L35.185 23.0447L94.3626 91.3345L64.8107 5.94028L97.0629 90.3517L98.4996 0Z" fill="#9015D5"></path> </g> </svg> 