<?xml version="1.0" encoding="UTF-8"?> <svg xmlns="http://www.w3.org/2000/svg" width="374" height="489" viewBox="0 0 374 489" fill="none"> <rect width="374" height="489" fill="#6FEA2A"></rect> <path d="M338.866 362.322L374 374.538V488.998H231.683L238.524 444.551L230.542 388.818L235.103 380.938L239.664 375.31L243.085 366.305L252.207 315.652L268.171 328.987L288.695 345.655L338.866 362.322Z" fill="#1A1A1B"></path> <path d="M121.079 376.438L108.536 339.292L92.5727 352.799L48.1031 373.061L0.000396729 390.793V489H137.042L140.463 470.99L138.182 448.477L137.042 439.472L132.481 415.834L121.079 376.438Z" fill="#1A1A1B"></path> <path fill-rule="evenodd" clip-rule="evenodd" d="M252.207 314.614V374.629C249.166 382.556 243.085 397.956 243.085 396.144V382.556C238.904 384.821 230.998 389.35 232.823 389.35C234.647 389.35 237.384 426.341 238.524 444.836L231.683 488.998H137.042L130.201 447.101H123.359V414.262L108.536 378.027V338.394L113.097 330.467L153.006 307.82L206.597 299.894L247.646 307.82L252.207 314.614ZM244.225 314.526L206.597 304.396L156.426 314.526L117.658 341.541L122.219 371.933L139.322 393.32L150.725 406.827L162.127 446.224L187.212 460.857L195.194 468.736L214.578 429.34L221.42 416.958L229.401 386.566L239.664 352.797L244.225 314.526Z" fill="white"></path> </svg> 