<?xml version="1.0" encoding="UTF-8"?> <svg xmlns="http://www.w3.org/2000/svg" width="182" height="182" viewBox="0 0 182 182" fill="none"> <mask id="mask0_595_7552" style="mask-type:luminance" maskUnits="userSpaceOnUse" x="0" y="0" width="182" height="182"> <path d="M182 1.09331e-07L0 0L-1.09331e-07 182L182 182L182 1.09331e-07Z" fill="white"></path> </mask> <g mask="url(#mask0_595_7552)"> <path d="M89.0087 1.68021C89.3947 -0.560079 92.6052 -0.560064 92.9911 1.68022L97.2453 26.3723C97.5847 28.3409 100.263 28.6798 101.08 26.8576L111.328 4.00128C112.258 1.92753 115.368 2.7275 115.186 4.99358L113.178 29.9698C113.017 31.9611 115.527 32.9567 116.771 31.3953L132.371 11.8108C133.786 10.0339 136.6 11.5837 135.861 13.7331L127.717 37.4242C127.067 39.313 129.251 40.9028 130.843 39.7003L150.814 24.6182C152.626 23.2499 154.967 25.4519 153.717 27.3497L139.948 48.267C138.851 49.9347 140.571 52.0187 142.412 51.2508L165.499 41.6188C167.594 40.7449 169.315 43.4609 167.633 44.9878L149.104 61.817C147.627 63.1588 148.777 65.6061 150.751 65.3209L175.503 61.7441C177.748 61.4196 178.741 64.4791 176.734 65.5391L154.61 77.2229C152.846 78.1544 153.352 80.8111 155.334 81.0267L180.197 83.7299C182.453 83.9753 182.654 87.1857 180.448 87.7123L156.119 93.5162C154.179 93.9793 154.009 96.6784 155.876 97.3809L179.286 106.194C181.41 106.994 180.809 110.154 178.54 110.115L153.535 109.674C151.541 109.639 150.708 112.211 152.341 113.357L172.829 127.727C174.687 129.031 173.32 131.941 171.133 131.337L147.023 124.68C145.1 124.149 143.654 126.433 144.952 127.95L161.229 146.973C162.706 148.699 160.66 151.177 158.69 150.047L136.99 137.592C135.26 136.599 133.292 138.451 134.173 140.243L145.217 162.724C146.219 164.765 143.622 166.655 141.995 165.07L124.068 147.599C122.639 146.206 120.273 147.509 120.681 149.465L125.798 173.991C126.262 176.217 123.277 177.401 122.096 175.461L109.068 154.071C108.029 152.366 105.414 153.038 105.324 155.034L104.192 180.066C104.09 182.337 100.904 182.74 100.242 180.566L92.9328 156.603C92.3495 154.693 89.6503 154.693 89.0675 156.603L81.7584 180.566C81.0952 182.74 77.91 182.337 77.8073 180.066L76.6757 155.034C76.5855 153.038 73.9708 152.366 72.9322 154.071L59.9047 175.461C58.7227 177.401 55.7377 176.217 56.202 173.991L61.319 149.465C61.7269 147.509 59.3614 146.206 57.9321 147.599L40.005 165.07C38.3784 166.655 35.781 164.765 36.7831 162.724L47.8272 140.243C48.7077 138.451 46.7399 136.599 45.0098 137.592L23.3094 150.047C21.3405 151.177 19.294 148.699 20.7708 146.973L37.0482 127.95C38.3459 126.433 36.8994 124.149 34.9772 124.68L10.867 131.337C8.67952 131.941 7.31254 129.031 9.17134 127.727L29.6591 113.357C31.2925 112.211 30.4583 109.639 28.4648 109.674L3.45976 110.115C1.19108 110.154 0.589461 106.994 2.71351 106.194L26.1243 97.3809C27.9908 96.6784 27.8212 93.9793 25.8816 93.5162L1.55291 87.7123C-0.654416 87.1857 -0.452806 83.9753 1.80299 83.7299L26.6659 81.0267C28.6482 80.8111 29.1539 78.1544 27.3901 77.2229L5.26639 65.5391C3.25912 64.479 4.25125 61.4196 6.49706 61.7441L31.2499 65.3209C33.2233 65.6061 34.3727 63.1588 32.8954 61.817L14.3668 44.9878C12.6858 43.4609 14.406 40.7449 16.5008 41.6188L39.5881 51.2508C41.4288 52.0187 43.1495 49.9347 42.0517 48.267L28.2824 27.3497C27.0331 25.4519 29.3735 23.2499 31.1855 24.6182L51.1567 39.7003C52.7491 40.9028 54.9329 39.313 54.2836 37.4242L46.1387 13.7331C45.3998 11.5837 48.2132 10.0339 49.6287 11.8108L65.2289 31.3953C66.4727 32.9567 68.9825 31.961 68.8225 29.9698L66.8139 4.99356C66.6316 2.72749 69.7414 1.92753 70.6712 4.00126L80.9204 26.8576C81.7375 28.6798 84.4157 28.3409 84.7548 26.3723L89.0087 1.68021Z" fill="#9015D5"></path> </g> </svg> 