<?xml version="1.0" encoding="UTF-8"?> <svg xmlns="http://www.w3.org/2000/svg" width="165" height="165" viewBox="0 0 165 165" fill="none"> <mask id="mask0_687_197" style="mask-type:luminance" maskUnits="userSpaceOnUse" x="0" y="0" width="165" height="165"> <path d="M165 0H0V165H165V0Z" fill="white"></path> </mask> <g mask="url(#mask0_687_197)"> <path d="M82.4986 0L83.7023 75.6753L110.715 4.97536L85.9636 76.4985L135.529 19.3014L87.8075 78.0455L153.946 41.25L89.0103 80.1298L163.745 68.174L89.4286 82.5L163.745 96.8261L89.0103 84.8702L153.946 123.75L87.8075 86.9542L135.529 145.698L85.9636 88.5019L110.715 160.024L83.7023 89.3244L82.4986 165L81.2952 89.3244L54.2819 160.024L79.0336 88.5019L29.4686 145.698L77.1899 86.9542L11.0515 123.75L75.9865 84.8702L1.25195 96.8261L75.5686 82.5L1.25195 68.174L75.9865 80.1298L11.0515 41.25L77.1899 78.0455L29.4686 19.3014L79.0336 76.4985L54.2819 4.97536L81.2952 75.6753L82.4986 0Z" fill="#9015D5"></path> </g> </svg> 