<?xml version="1.0" encoding="UTF-8"?> <svg xmlns="http://www.w3.org/2000/svg" width="374" height="489" viewBox="0 0 374 489" fill="none"> <rect width="374" height="489" fill="#6FEA2A"></rect> <path d="M35.1343 362.322L0 374.538V488.998H142.317L135.476 444.551L143.458 388.818L138.897 380.938L134.336 375.31L130.915 366.305L121.793 315.652L105.829 328.987L85.3051 345.655L35.1343 362.322Z" fill="#1A1A1B"></path> <path d="M252.921 376.438L265.464 339.292L281.427 352.799L325.897 373.061L374 390.793V489H236.958L233.537 470.99L235.818 448.477L236.958 439.472L241.519 415.834L252.921 376.438Z" fill="#1A1A1B"></path> <path fill-rule="evenodd" clip-rule="evenodd" d="M121.793 314.614V374.629C124.834 382.556 130.915 397.956 130.915 396.144V382.556C135.096 384.821 143.002 389.35 141.177 389.35C139.353 389.35 136.616 426.341 135.476 444.836L142.317 488.998H236.958L243.799 447.101H250.641V414.262L265.464 378.027V338.394L260.903 330.467L220.994 307.82L167.403 299.894L126.354 307.82L121.793 314.614ZM129.775 314.526L167.403 304.396L217.574 314.526L256.342 341.541L251.781 371.933L234.678 393.32L223.275 406.827L211.873 446.224L186.788 460.857L178.806 468.736L159.422 429.34L152.58 416.958L144.599 386.566L134.336 352.797L129.775 314.526Z" fill="white"></path> </svg> 