<?xml version="1.0" encoding="UTF-8"?> <svg xmlns="http://www.w3.org/2000/svg" width="150" height="150" viewBox="0 0 150 150" fill="none"> <mask id="mask0_516_232" style="mask-type:luminance" maskUnits="userSpaceOnUse" x="0" y="0" width="150" height="150"> <path d="M1 149V1H149V149H1Z" fill="white" stroke="white" stroke-width="2"></path> </mask> <g mask="url(#mask0_516_232)"> <mask id="path-2-inside-1_516_232" fill="white"> <path d="M73.3588 1.38479C73.6769 -0.461604 76.323 -0.461591 76.641 1.3848L80.1472 21.7354C80.427 23.3579 82.6343 23.6372 83.3078 22.1354L91.7542 3.29776C92.5207 1.58863 95.0835 2.24794 94.9335 4.11559L93.2783 24.7004C93.1462 26.3416 95.2148 27.1622 96.24 25.8752L109.097 9.73418C110.263 8.26973 112.583 9.54698 111.974 11.3185L105.261 30.8441C104.726 32.4008 106.525 33.7111 107.838 32.72L124.298 20.2898C125.791 19.162 127.72 20.9768 126.69 22.541L115.342 39.7805C114.437 41.155 115.855 42.8726 117.373 42.2396L136.4 34.3012C138.127 33.581 139.545 35.8194 138.159 37.0778L122.888 50.9481C121.671 52.054 122.618 54.071 124.245 53.8359L144.645 50.888C146.496 50.6206 147.314 53.1421 145.66 54.0158L127.426 63.6452C125.972 64.4129 126.389 66.6026 128.023 66.7802L148.514 69.0082C150.374 69.2104 150.539 71.8563 148.721 72.2903L128.669 77.0738C127.07 77.4555 126.931 79.68 128.469 80.259L147.764 87.5228C149.514 88.182 149.018 90.786 147.148 90.7538L126.54 90.3908C124.897 90.3615 124.21 92.4818 125.556 93.426L142.441 105.269C143.973 106.344 142.846 108.743 141.044 108.245L121.173 102.758C119.588 102.321 118.396 104.203 119.466 105.453L132.881 121.132C134.098 122.555 132.412 124.597 130.789 123.665L112.904 113.4C111.478 112.582 109.856 114.108 110.582 115.585L119.684 134.114C120.51 135.795 118.369 137.353 117.029 136.047L102.253 121.648C101.076 120.5 99.126 121.574 99.4628 123.185L103.68 143.399C104.063 145.234 101.602 146.21 100.628 144.611L89.8913 126.982C89.0348 125.576 86.88 126.131 86.8057 127.775L85.8727 148.406C85.7887 150.278 83.163 150.61 82.617 148.818L76.593 129.068C76.1123 127.494 73.8876 127.494 73.4073 129.068L67.3833 148.818C66.8367 150.61 64.2116 150.278 64.1269 148.406L63.1943 127.775C63.1199 126.131 60.965 125.576 60.109 126.982L49.372 144.611C48.3979 146.21 45.9376 145.234 46.3203 143.399L50.5376 123.185C50.8738 121.574 48.9242 120.5 47.7463 121.648L32.9711 136.047C31.6306 137.353 29.4899 135.795 30.3158 134.114L39.418 115.585C40.1437 114.108 38.5219 112.582 37.096 113.4L19.211 123.665C17.5883 124.597 15.9016 122.555 17.1188 121.132L30.5342 105.453C31.6038 104.203 30.4116 102.321 28.8274 102.758L8.95635 108.245C7.15345 108.743 6.02682 106.344 7.5588 105.269L24.4443 93.426C25.7906 92.4818 25.103 90.3615 23.46 90.3908L2.85145 90.7538C0.981659 90.786 0.48582 88.182 2.23641 87.5228L21.531 80.259C23.0693 79.68 22.9296 77.4555 21.331 77.0738L1.27987 72.2903C-0.539354 71.8563 -0.373192 69.2104 1.48598 69.0082L21.9774 66.7802C23.6111 66.6026 24.028 64.4129 22.5743 63.6452L4.34043 54.0158C2.68609 53.142 3.50378 50.6206 5.35472 50.888L25.7554 53.8359C27.3818 54.071 28.3291 52.054 27.1116 50.9481L11.8408 37.0778C10.4553 35.8194 11.8731 33.581 13.5995 34.3012L32.6275 42.2396C34.1446 42.8726 35.5628 41.155 34.658 39.7805L23.3097 22.541C22.28 20.9768 24.2089 19.162 25.7023 20.2898L42.1622 32.72C43.4745 33.7111 45.2744 32.4008 44.7392 30.8441L38.0264 11.3185C37.4174 9.54698 39.7362 8.26973 40.9027 9.73418L53.7601 25.8752C54.7852 27.1622 56.8537 26.3415 56.7218 24.7004L55.0664 4.11557C54.9162 2.24793 57.4792 1.58862 58.2455 3.29774L66.6926 22.1354C67.3661 23.6372 69.5734 23.3579 69.8529 21.7354L73.3588 1.38479Z"></path> </mask> <path d="M73.3588 1.38479C73.6769 -0.461604 76.323 -0.461591 76.641 1.3848L80.1472 21.7354C80.427 23.3579 82.6343 23.6372 83.3078 22.1354L91.7542 3.29776C92.5207 1.58863 95.0835 2.24794 94.9335 4.11559L93.2783 24.7004C93.1462 26.3416 95.2148 27.1622 96.24 25.8752L109.097 9.73418C110.263 8.26973 112.583 9.54698 111.974 11.3185L105.261 30.8441C104.726 32.4008 106.525 33.7111 107.838 32.72L124.298 20.2898C125.791 19.162 127.72 20.9768 126.69 22.541L115.342 39.7805C114.437 41.155 115.855 42.8726 117.373 42.2396L136.4 34.3012C138.127 33.581 139.545 35.8194 138.159 37.0778L122.888 50.9481C121.671 52.054 122.618 54.071 124.245 53.8359L144.645 50.888C146.496 50.6206 147.314 53.1421 145.66 54.0158L127.426 63.6452C125.972 64.4129 126.389 66.6026 128.023 66.7802L148.514 69.0082C150.374 69.2104 150.539 71.8563 148.721 72.2903L128.669 77.0738C127.07 77.4555 126.931 79.68 128.469 80.259L147.764 87.5228C149.514 88.182 149.018 90.786 147.148 90.7538L126.54 90.3908C124.897 90.3615 124.21 92.4818 125.556 93.426L142.441 105.269C143.973 106.344 142.846 108.743 141.044 108.245L121.173 102.758C119.588 102.321 118.396 104.203 119.466 105.453L132.881 121.132C134.098 122.555 132.412 124.597 130.789 123.665L112.904 113.4C111.478 112.582 109.856 114.108 110.582 115.585L119.684 134.114C120.51 135.795 118.369 137.353 117.029 136.047L102.253 121.648C101.076 120.5 99.126 121.574 99.4628 123.185L103.68 143.399C104.063 145.234 101.602 146.21 100.628 144.611L89.8913 126.982C89.0348 125.576 86.88 126.131 86.8057 127.775L85.8727 148.406C85.7887 150.278 83.163 150.61 82.617 148.818L76.593 129.068C76.1123 127.494 73.8876 127.494 73.4073 129.068L67.3833 148.818C66.8367 150.61 64.2116 150.278 64.1269 148.406L63.1943 127.775C63.1199 126.131 60.965 125.576 60.109 126.982L49.372 144.611C48.3979 146.21 45.9376 145.234 46.3203 143.399L50.5376 123.185C50.8738 121.574 48.9242 120.5 47.7463 121.648L32.9711 136.047C31.6306 137.353 29.4899 135.795 30.3158 134.114L39.418 115.585C40.1437 114.108 38.5219 112.582 37.096 113.4L19.211 123.665C17.5883 124.597 15.9016 122.555 17.1188 121.132L30.5342 105.453C31.6038 104.203 30.4116 102.321 28.8274 102.758L8.95635 108.245C7.15345 108.743 6.02682 106.344 7.5588 105.269L24.4443 93.426C25.7906 92.4818 25.103 90.3615 23.46 90.3908L2.85145 90.7538C0.981659 90.786 0.48582 88.182 2.23641 87.5228L21.531 80.259C23.0693 79.68 22.9296 77.4555 21.331 77.0738L1.27987 72.2903C-0.539354 71.8563 -0.373192 69.2104 1.48598 69.0082L21.9774 66.7802C23.6111 66.6026 24.028 64.4129 22.5743 63.6452L4.34043 54.0158C2.68609 53.142 3.50378 50.6206 5.35472 50.888L25.7554 53.8359C27.3818 54.071 28.3291 52.054 27.1116 50.9481L11.8408 37.0778C10.4553 35.8194 11.8731 33.581 13.5995 34.3012L32.6275 42.2396C34.1446 42.8726 35.5628 41.155 34.658 39.7805L23.3097 22.541C22.28 20.9768 24.2089 19.162 25.7023 20.2898L42.1622 32.72C43.4745 33.7111 45.2744 32.4008 44.7392 30.8441L38.0264 11.3185C37.4174 9.54698 39.7362 8.26973 40.9027 9.73418L53.7601 25.8752C54.7852 27.1622 56.8537 26.3415 56.7218 24.7004L55.0664 4.11557C54.9162 2.24793 57.4792 1.58862 58.2455 3.29774L66.6926 22.1354C67.3661 23.6372 69.5734 23.3579 69.8529 21.7354L73.3588 1.38479Z" stroke="#6FEA2A" stroke-width="4" mask="url(#path-2-inside-1_516_232)"></path> </g> </svg> 