<?xml version="1.0" encoding="utf-8"?>
<!-- Generator: Adobe Illustrator 18.1.1, SVG Export Plug-In . SVG Version: 6.00 Build 0)  -->
<svg version="1.1" id="Layer_1" xmlns="http://www.w3.org/2000/svg" xmlns:xlink="http://www.w3.org/1999/xlink" x="0px" y="0px"
	 viewBox="0 0 1300 360" enable-background="new 0 0 1300 360" xml:space="preserve">
<g>
	<path fill="#FFFFFF" d="M3.5,22.1h47.6v259.8h78.4v43.3H3.5V22.1z"/>
	<path fill="#FFFFFF" d="M152.5,22.1h47.6v303.1h-47.6V22.1z"/>
	<path fill="#FFFFFF" d="M235.6,22.1h59.8l46.3,181.4h0.9V22.1H385v303.1h-48.9L278.9,104H278v221.3h-42.4V22.1z"/>
	<path fill="#FFFFFF" d="M420.5,22.1h47.6v127.7l60.6-127.7h47.6l-56.7,111.3l57.6,191.8h-49.8l-40.3-135.1l-19.1,38.5v96.6h-47.6
		V22.1z"/>
	<path fill="#FFFFFF" d="M599.8,22.1h129.9v43.3h-82.3v80.1h65.4v43.3h-65.4v93.1h82.3v43.3H599.8V22.1z"/>
	<path fill="#FFFFFF" d="M756.9,22.1h68l30.3,216.9h0.9l30.3-216.9h68v303.1h-45V95.7h-0.9l-34.6,229.5H834L799.4,95.7h-0.9v229.5
		h-41.6V22.1z"/>
	<path fill="#FFFFFF" d="M989.9,22.1h129.9v43.3h-82.3v80.1h65.4v43.3h-65.4v93.1h82.3v43.3H989.9V22.1z"/>
	<path fill="#FFFFFF" d="M1147.1,22.1h70.6c24.5,0,42.4,5.7,53.7,17.1c11.3,11.4,16.9,28.9,16.9,52.6v18.6
		c0,31.5-10.4,51.4-31.2,59.8v0.9c11.5,3.5,19.7,10.5,24.5,21.2c4.8,10.7,7.1,25,7.1,42.9v53.3c0,8.7,0.3,15.7,0.9,21
		c0.6,5.3,2,10.6,4.3,15.8h-48.5c-1.7-4.9-2.9-9.5-3.5-13.9c-0.6-4.3-0.9-12.1-0.9-23.4v-55.4c0-13.9-2.2-23.5-6.7-29
		c-4.5-5.5-12.2-8.2-23.2-8.2h-16.5v129.9h-47.6V22.1z M1212,152c9.5,0,16.7-2.4,21.4-7.4c4.8-4.9,7.1-13.1,7.1-24.7V96.6
		c0-11-1.9-18.9-5.8-23.8c-3.9-4.9-10-7.4-18.4-7.4h-21.7V152H1212z"/>
</g>
<g>
</g>
<g>
</g>
<g>
</g>
<g>
</g>
<g>
</g>
<g>
</g>
</svg>
