<?xml version="1.0" encoding="utf-8"?>
<!-- Generator: Adobe Illustrator 18.1.1, SVG Export Plug-In . SVG Version: 6.00 Build 0)  -->
<svg version="1.1" id="Layer_1" xmlns="http://www.w3.org/2000/svg" xmlns:xlink="http://www.w3.org/1999/xlink" x="0px" y="0px"
	 viewBox="0 0 1300 360" enable-background="new 0 0 1300 360" xml:space="preserve">
<g>
	<path d="M2,37h44v240h72.4v40H2V37z"/>
	<path d="M139.6,37h44v280h-44V37z"/>
	<path d="M216.3,37h55.2l42.8,167.6h0.8V37h39.2v280h-45.2l-52.8-204.4h-0.8V317h-39.2V37z"/>
	<path d="M387.1,37h44v118l56-118h44l-52.4,102.8L531.9,317h-46l-37.2-124.8l-17.6,35.6V317h-44V37z"/>
	<path d="M552.7,37h120v40h-76v74h60.4v40h-60.4v86h76v40h-120V37z"/>
	<path d="M697.9,37h62.8l28,200.4h0.8l28-200.4h62.8v280h-41.6V105h-0.8l-32,212h-36.8l-32-212h-0.8v212h-38.4V37z"/>
	<path d="M913.1,37h120v40h-76v74h60.4v40h-60.4v86h76v40h-120V37z"/>
	<path d="M1058.3,37h65.2c22.7,0,39.2,5.3,49.6,15.8c10.4,10.5,15.6,26.7,15.6,48.6v17.2c0,29.1-9.6,47.5-28.8,55.2v0.8
		c10.7,3.2,18.2,9.7,22.6,19.6c4.4,9.9,6.6,23.1,6.6,39.6V283c0,8,0.3,14.5,0.8,19.4c0.5,4.9,1.9,9.8,4,14.6h-44.8
		c-1.6-4.5-2.7-8.8-3.2-12.8c-0.5-4-0.8-11.2-0.8-21.6v-51.2c0-12.8-2.1-21.7-6.2-26.8c-4.1-5.1-11.3-7.6-21.4-7.6h-15.2v120h-44V37
		z M1118.3,157c8.8,0,15.4-2.3,19.8-6.8c4.4-4.5,6.6-12.1,6.6-22.8v-21.6c0-10.1-1.8-17.5-5.4-22c-3.6-4.5-9.3-6.8-17-6.8h-20v80
		H1118.3z"/>
</g>
<g>
</g>
<g>
</g>
<g>
</g>
<g>
</g>
<g>
</g>
<g>
</g>
</svg>
