<?xml version="1.0" encoding="UTF-8"?> <svg xmlns="http://www.w3.org/2000/svg" width="373" height="489" viewBox="0 0 373 489" fill="none"> <rect width="373" height="489" fill="#6FEA2A"></rect> <path d="M359 373L373 383V489H0V437.5L11.5 414L43 392.5H49.5L114 363.5V344.5L146 301L182 275L236.5 283.5L249 309L272 324V332.5L286.5 352L359 373Z" fill="#1A1A1B"></path> <path d="M279 310.951L263.533 291.987L209.4 285L163.644 291.987L105 346.5V385.31L121.111 376.826V447.193L139.5 489H170L188.778 463.163L220.356 390.8L248.067 402.777L272.556 357.862L279 310.951Z" fill="white"></path> <path d="M229.155 296L274 305.035L239.979 345.694L192.814 372.298L153.381 424L124 365.271V331.639L164.979 305.035L229.155 296Z" fill="#6FEA2A"></path> </svg> 